<svg width="244" height="154" viewBox="0 0 244 154" fill="none" xmlns="http://www.w3.org/2000/svg">
<path d="M15.145 90.418H29.705V98.998H4.03V53.368H15.145V90.418ZM51.5166 99.518C47.9632 99.518 44.7566 98.7597 41.8966 97.243C39.0799 95.7264 36.8482 93.5597 35.2016 90.743C33.5982 87.9264 32.7966 84.633 32.7966 80.863C32.7966 77.1364 33.6199 73.8647 35.2666 71.048C36.9132 68.188 39.1666 65.9997 42.0266 64.483C44.8866 62.9664 48.0932 62.208 51.6466 62.208C55.1999 62.208 58.4066 62.9664 61.2666 64.483C64.1266 65.9997 66.3799 68.188 68.0266 71.048C69.6732 73.8647 70.4966 77.1364 70.4966 80.863C70.4966 84.5897 69.6516 87.883 67.9616 90.743C66.3149 93.5597 64.0399 95.7264 61.1366 97.243C58.2766 98.7597 55.0699 99.518 51.5166 99.518ZM51.5166 89.898C53.6399 89.898 55.4382 89.118 56.9116 87.558C58.4282 85.998 59.1866 83.7664 59.1866 80.863C59.1866 77.9597 58.4499 75.728 56.9766 74.168C55.5466 72.608 53.7699 71.828 51.6466 71.828C49.4799 71.828 47.6816 72.608 46.2516 74.168C44.8216 75.6847 44.1066 77.9164 44.1066 80.863C44.1066 83.7664 44.7999 85.998 46.1866 87.558C47.6166 89.118 49.3932 89.898 51.5166 89.898ZM90.1733 62.208C92.7299 62.208 94.9616 62.728 96.8683 63.768C98.8183 64.808 100.313 66.173 101.353 67.863V62.728H112.468V98.933C112.468 102.27 111.797 105.281 110.453 107.968C109.153 110.698 107.138 112.865 104.408 114.468C101.722 116.071 98.3633 116.873 94.3333 116.873C88.9599 116.873 84.6049 115.595 81.2683 113.038C77.9316 110.525 76.0249 107.101 75.5483 102.768H86.5333C86.8799 104.155 87.7033 105.238 89.0033 106.018C90.3033 106.841 91.9066 107.253 93.8133 107.253C96.1099 107.253 97.9299 106.581 99.2733 105.238C100.66 103.938 101.353 101.836 101.353 98.933V93.798C100.27 95.488 98.7749 96.8747 96.8683 97.958C94.9616 98.998 92.7299 99.518 90.1733 99.518C87.1833 99.518 84.4749 98.7597 82.0483 97.243C79.6216 95.683 77.6933 93.4947 76.2633 90.678C74.8766 87.818 74.1833 84.5247 74.1833 80.798C74.1833 77.0714 74.8766 73.7997 76.2633 70.983C77.6933 68.1664 79.6216 65.9997 82.0483 64.483C84.4749 62.9664 87.1833 62.208 90.1733 62.208ZM101.353 80.863C101.353 78.0897 100.573 75.9014 99.0133 74.298C97.4966 72.6947 95.6333 71.893 93.4233 71.893C91.2133 71.893 89.3283 72.6947 87.7683 74.298C86.2516 75.858 85.4933 78.0247 85.4933 80.798C85.4933 83.5714 86.2516 85.7814 87.7683 87.428C89.3283 89.0314 91.2133 89.833 93.4233 89.833C95.6333 89.833 97.4966 89.0314 99.0133 87.428C100.573 85.8247 101.353 83.6364 101.353 80.863ZM126.099 58.958C124.149 58.958 122.546 58.3947 121.289 57.268C120.076 56.098 119.469 54.668 119.469 52.978C119.469 51.2447 120.076 49.8147 121.289 48.688C122.546 47.518 124.149 46.933 126.099 46.933C128.006 46.933 129.566 47.518 130.779 48.688C132.036 49.8147 132.664 51.2447 132.664 52.978C132.664 54.668 132.036 56.098 130.779 57.268C129.566 58.3947 128.006 58.958 126.099 58.958ZM131.624 62.728V98.998H120.509V62.728H131.624ZM161.779 62.338C166.026 62.338 169.406 63.7247 171.919 66.498C174.476 69.228 175.754 72.998 175.754 77.808V98.998H164.704V79.303C164.704 76.8764 164.076 74.9914 162.819 73.648C161.563 72.3047 159.873 71.633 157.749 71.633C155.626 71.633 153.936 72.3047 152.679 73.648C151.423 74.9914 150.794 76.8764 150.794 79.303V98.998H139.679V62.728H150.794V67.538C151.921 65.9347 153.438 64.678 155.344 63.768C157.251 62.8147 159.396 62.338 161.779 62.338Z" fill="black"/>
<path d="M213.66 4.46116C211.722 3.56404 208.536 2.9389 204.448 5.01653C199.083 7.743 193.997 14.7695 190.839 23.8086C189.93 26.3818 189.236 29.0219 188.765 31.7021L183.75 21.8354C183.413 21.1715 182.821 20.6711 182.105 20.4444C181.389 20.2176 180.607 20.2831 179.931 20.6264C179.256 20.9698 178.742 21.5628 178.503 22.275C178.264 22.9873 178.319 23.7604 178.656 24.4243L183.671 34.291C181.232 33.0904 178.695 32.0923 176.085 31.3068C166.918 28.5313 158.244 28.4982 152.87 31.2295C148.782 33.3071 147.409 36.2494 146.991 38.3439C146.214 42.1918 146.943 47.85 158.248 60.6584C163.964 67.1365 169.707 67.8282 173.792 67.0991C173.427 71.1617 174.691 75.1808 177.31 78.2869C179.929 81.3931 183.693 83.3366 187.787 83.6969C191.881 84.0572 195.976 82.8055 199.187 80.2124C202.398 77.6193 204.465 73.8934 204.943 69.8408C208.498 71.8438 212.727 72.3698 216.714 71.3047C220.701 70.2397 224.126 67.6694 226.249 64.1498C228.371 60.6302 229.019 56.4443 228.054 52.4976C227.089 48.551 224.587 45.1609 221.091 43.0608C224.09 40.1975 226.911 35.1454 225.05 26.7077C222.985 17.3465 220.013 7.38313 213.66 4.46116ZM193.915 76.5202C191.635 77.6299 189.028 77.8506 186.616 77.1379C184.204 76.4251 182.166 74.8318 180.912 72.6777C179.658 70.5237 179.281 67.9684 179.855 65.5249C180.43 63.0814 181.914 60.9305 184.01 59.5042C184.331 59.3026 184.61 59.04 184.83 58.7319C185.049 58.4237 185.205 58.0762 185.288 57.7096C185.371 57.343 185.38 56.9648 185.314 56.5969C185.247 56.229 185.107 55.8789 184.902 55.5671C184.697 55.2553 184.43 54.988 184.118 54.7809C183.805 54.5738 183.453 54.4309 183.083 54.3608C182.712 54.2906 182.33 54.2945 181.959 54.3722C181.587 54.4499 181.234 54.5999 180.92 54.8135C178.667 56.2745 176.825 58.2821 175.574 60.6415C172.904 62.0337 168.001 63.0841 162.559 56.9158C159.837 53.8301 151.569 44.4356 152.577 39.3716C152.74 38.5644 153.214 37.3545 155.414 36.2364C164.097 31.8239 185.794 38.4686 190.055 46.852L198.377 63.2275C199.558 65.5514 199.751 68.2573 198.915 70.7502C198.078 73.2431 196.28 75.3186 193.915 76.5202ZM219.486 27.9844C221.257 36.0184 217.52 39.3547 214.821 40.6954C212.176 40.3085 209.465 40.6076 206.953 41.5635C206.595 41.6912 206.266 41.8879 205.985 42.142C205.703 42.3961 205.475 42.7025 205.313 43.0433C205.151 43.3841 205.059 43.7525 205.042 44.127C205.025 44.5014 205.084 44.8744 205.215 45.224C205.346 45.5737 205.546 45.8931 205.804 46.1635C206.062 46.4339 206.373 46.6498 206.718 46.7988C207.063 46.9477 207.436 47.0267 207.814 47.031C208.192 47.0353 208.569 46.9649 208.921 46.8238C210.732 46.1333 212.698 45.9735 214.583 46.3637C216.468 46.754 218.191 47.6775 219.544 49.0229C220.896 50.3683 221.822 52.078 222.207 53.9457C222.593 55.8134 222.422 57.7592 221.717 59.5482C221.011 61.3372 219.8 62.893 218.23 64.0277C216.659 65.1624 214.797 65.8275 212.868 65.9428C210.939 66.0581 209.025 65.6186 207.358 64.6774C205.69 63.7362 204.34 62.3335 203.471 60.6386L195.149 44.263C190.888 35.8797 198.297 14.4424 206.992 10.0234C209.205 8.89882 210.459 9.23012 211.21 9.5729C215.898 11.7422 218.598 23.9667 219.486 27.9844Z" fill="black"/>
<path d="M213.66 4.46116C211.722 3.56404 208.536 2.9389 204.448 5.01653C199.083 7.743 193.997 14.7695 190.839 23.8086C189.93 26.3818 189.236 29.0219 188.765 31.7021L183.75 21.8354C183.413 21.1715 182.821 20.6711 182.105 20.4444C181.389 20.2176 180.607 20.2831 179.931 20.6264C179.256 20.9698 178.742 21.5628 178.503 22.275C178.264 22.9873 178.319 23.7604 178.656 24.4243L183.671 34.291C181.232 33.0904 178.695 32.0923 176.085 31.3068C166.918 28.5313 158.244 28.4982 152.87 31.2295C148.782 33.3071 147.409 36.2494 146.991 38.3439C146.214 42.1918 146.943 47.85 158.248 60.6584C163.964 67.1365 169.707 67.8282 173.792 67.0991C173.427 71.1617 174.691 75.1808 177.31 78.2869C179.929 81.3931 183.693 83.3366 187.787 83.6969C191.881 84.0572 195.976 82.8055 199.187 80.2124C202.398 77.6193 204.465 73.8934 204.943 69.8408C208.498 71.8438 212.727 72.3698 216.714 71.3047C220.701 70.2397 224.126 67.6694 226.249 64.1498C228.371 60.6302 229.019 56.4443 228.054 52.4976C227.089 48.551 224.587 45.1609 221.091 43.0608C224.09 40.1975 226.911 35.1454 225.05 26.7077C222.985 17.3465 220.013 7.38313 213.66 4.46116ZM193.915 76.5202C191.635 77.6299 189.028 77.8506 186.616 77.1379C184.204 76.4251 182.166 74.8318 180.912 72.6777C179.658 70.5237 179.281 67.9684 179.855 65.5249C180.43 63.0814 181.914 60.9305 184.01 59.5042C184.331 59.3026 184.61 59.04 184.83 58.7319C185.049 58.4237 185.205 58.0762 185.288 57.7096C185.371 57.343 185.38 56.9648 185.314 56.5969C185.247 56.229 185.107 55.8789 184.902 55.5671C184.697 55.2553 184.43 54.988 184.118 54.7809C183.805 54.5738 183.453 54.4309 183.083 54.3608C182.712 54.2906 182.33 54.2945 181.959 54.3722C181.587 54.4499 181.234 54.5999 180.92 54.8135C178.667 56.2745 176.825 58.2821 175.574 60.6415C172.904 62.0337 168.001 63.0841 162.559 56.9158C159.837 53.8301 151.569 44.4356 152.577 39.3716C152.74 38.5644 153.214 37.3545 155.414 36.2364C164.097 31.8239 185.794 38.4686 190.055 46.852L198.377 63.2275C199.558 65.5514 199.751 68.2573 198.915 70.7502C198.078 73.2431 196.28 75.3186 193.915 76.5202ZM219.486 27.9844C221.257 36.0184 217.52 39.3547 214.821 40.6954C212.176 40.3085 209.465 40.6076 206.953 41.5635C206.595 41.6912 206.266 41.8879 205.985 42.142C205.703 42.3961 205.475 42.7025 205.313 43.0433C205.151 43.3841 205.059 43.7525 205.042 44.127C205.025 44.5014 205.084 44.8744 205.215 45.224C205.346 45.5737 205.546 45.8931 205.804 46.1635C206.062 46.4339 206.373 46.6498 206.718 46.7988C207.063 46.9477 207.436 47.0267 207.814 47.031C208.192 47.0353 208.569 46.9649 208.921 46.8238C210.732 46.1333 212.698 45.9735 214.583 46.3637C216.468 46.754 218.191 47.6775 219.544 49.0229C220.896 50.3683 221.822 52.078 222.207 53.9457C222.593 55.8134 222.422 57.7592 221.717 59.5482C221.011 61.3372 219.8 62.893 218.23 64.0277C216.659 65.1624 214.797 65.8275 212.868 65.9428C210.939 66.0581 209.025 65.6186 207.358 64.6774C205.69 63.7362 204.34 62.3335 203.471 60.6386L195.149 44.263C190.888 35.8797 198.297 14.4424 206.992 10.0234C209.205 8.89882 210.459 9.23012 211.21 9.5729C215.898 11.7422 218.598 23.9667 219.486 27.9844Z" fill="#00FF0A" fill-opacity="0.5"/>
</svg>
