<svg width="321" height="195" viewBox="0 0 321 195" fill="none" xmlns="http://www.w3.org/2000/svg">
<path d="M16.59 101.6C14.35 102.813 11.0833 103.42 6.79 103.42C5.43667 103.42 4.13 103.327 2.87 103.14C2.87 100.667 4.15333 94.18 6.72 83.68C9.33333 73.18 10.64 66.11 10.64 62.47C10.64 61.5367 10.4067 60.5567 9.94 59.53C9.47333 58.4567 9.00667 57.64 8.54 57.08L7.77 56.17L8.05 54.77C11.3633 53.79 16.5667 53.3 23.66 53.3C24.3133 54.6067 24.64 56.2633 24.64 58.27C24.64 60.2767 23.66 65.83 21.7 74.93H22.12C25.48 74.93 28 73.4133 29.68 70.38C31.4067 67.3 32.7367 62.2367 33.67 55.19C37.8233 53.93 41.93 53.3 45.99 53.3C46.0833 53.6733 46.1067 54.7 46.06 56.38C46.0133 58.0133 45.57 60.2067 44.73 62.96C43.9367 65.7133 42.49 68.56 40.39 71.5C38.29 74.3933 35.7233 76.61 32.69 78.15C36.2367 90.3767 38.99 96.49 40.95 96.49C41.6967 96.49 42.8867 96.21 44.52 95.65L45.29 95.37L46.97 99.22C42.63 102.3 38.2433 103.84 33.81 103.84C29.3767 103.84 26.46 101.553 25.06 96.98C23.66 92.3133 22.61 86.83 21.91 80.53H20.44C17.8733 91.9167 16.59 98.94 16.59 101.6ZM47.0641 90.33C47.0641 84.5433 48.8141 80.04 52.3141 76.82C55.8607 73.6 60.2241 71.99 65.4041 71.99C68.9974 71.99 71.8674 72.7833 74.0141 74.37C76.2074 75.91 77.3041 77.9867 77.3041 80.6C77.3041 82.5133 76.7207 84.2167 75.5541 85.71C74.3874 87.2033 72.9641 88.3467 71.2841 89.14C67.7374 90.7267 64.6574 91.6833 62.0441 92.01L60.2941 92.22C60.8074 95.3 62.3474 96.84 64.9141 96.84C66.0341 96.84 67.2707 96.6067 68.6241 96.14C69.9774 95.6267 71.0507 95.1133 71.8441 94.6L73.0341 93.9L75.2741 96.91C75.2741 96.91 75.0174 97.1667 74.5041 97.68C74.2241 97.96 73.5474 98.52 72.4741 99.36C71.4474 100.153 70.3507 100.853 69.1841 101.46C68.0641 102.067 66.6174 102.603 64.8441 103.07C63.0707 103.583 61.2974 103.84 59.5241 103.84C55.5574 103.84 52.4774 102.697 50.2841 100.41C48.1374 98.0767 47.0641 94.7167 47.0641 90.33ZM60.0141 87.6C61.3674 87.4133 62.7207 86.3167 64.0741 84.31C65.4274 82.2567 66.1041 80.5533 66.1041 79.2C66.1041 77.8 65.7074 77.1 64.9141 77.1C63.7474 77.1 62.6741 78.01 61.6941 79.83C60.7141 81.65 60.1541 84.24 60.0141 87.6ZM111.082 72.48H111.642C111.409 73.6933 111.012 76.3067 110.452 80.32C109.192 89.4667 107.839 96.3733 106.392 101.04C102.799 112.8 97.0357 118.68 89.1023 118.68C86.7223 118.68 84.7857 118.167 83.2923 117.14C81.8457 116.16 81.1223 114.853 81.1223 113.22C81.1223 111.633 81.4957 110.303 82.2423 109.23C83.0357 108.203 84.1557 107.34 85.6023 106.64C88.0757 105.427 91.109 104.423 94.7023 103.63C95.0757 101.857 95.309 100.713 95.4023 100.2C91.7623 102.16 88.309 103.14 85.0423 103.14C80.5623 103.14 78.3223 100.947 78.3223 96.56C78.3223 95.02 78.8357 92.01 79.8623 87.53C80.889 83.0033 81.4023 79.8767 81.4023 78.15C81.4023 76.4233 81.2857 75.14 81.0523 74.3C86.559 73.1333 90.829 72.55 93.8623 72.55C94.2357 73.11 94.4223 74.23 94.4223 75.91C94.4223 77.5433 93.8857 80.74 92.8123 85.5C91.7857 90.26 91.2723 93.06 91.2723 93.9C91.2723 95.3467 91.9723 96.07 93.3723 96.07C94.1657 96.07 95.0757 95.86 96.1023 95.44C96.4757 93.06 96.989 89.4433 97.6423 84.59C98.3423 79.69 98.8323 76.33 99.1123 74.51C100.326 73.95 102.146 73.4833 104.572 73.11C107.046 72.69 109.216 72.48 111.082 72.48ZM86.0923 111.89C86.0923 112.963 86.7923 113.5 88.1923 113.5C88.8923 113.5 89.8023 113.01 90.9223 112.03C92.089 111.097 93.0223 109.697 93.7223 107.83C88.6357 108.717 86.0923 110.07 86.0923 111.89Z" fill="#13D60F"/>
<path d="M127.06 73.65L143.58 74.07C145.96 74.07 147.803 74.0233 149.11 73.93C149.25 74.77 149.32 75.7967 149.32 77.01C149.32 78.2233 148.993 79.1567 148.34 79.81C147.687 80.4633 146.543 80.79 144.91 80.79L134.2 79.95C133.5 79.95 132.917 79.9733 132.45 80.02C132.357 81.7933 131.377 86.9733 129.51 95.56C132.17 95.3267 134.83 95.21 137.49 95.21C140.15 95.21 142.087 95.42 143.3 95.84C143.113 97.9867 142.67 99.7133 141.97 101.02L141.62 101.72C140.313 101.3 138.307 101.09 135.6 101.09C132.94 101.09 130.49 101.183 128.25 101.37C126.523 109.723 125.66 116.14 125.66 120.62V121.6C123.187 122.813 118.847 123.42 112.64 123.42H111.87C111.87 119.313 112.897 112.407 114.95 102.7C117.003 92.9933 118.24 86.2033 118.66 82.33C118.66 81.3967 118.403 80.44 117.89 79.46C117.377 78.4333 116.863 77.64 116.35 77.08L115.58 76.31L115.72 74.7C119.173 74 122.953 73.65 127.06 73.65ZM155.588 123.84C151.948 123.84 149.078 122.697 146.978 120.41C144.878 118.077 143.828 114.81 143.828 110.61C143.828 105.477 145.344 101.137 148.378 97.59C151.411 93.9967 155.401 92.2 160.348 92.2L163.498 92.48C164.618 92.1533 165.668 91.99 166.648 91.99C168.981 91.99 170.638 92.7833 171.618 94.37C172.644 95.9567 173.228 98.22 173.368 101.16C175.328 101.067 177.194 100.763 178.968 100.25L179.948 99.97C180.274 100.297 180.508 101.277 180.648 102.91L180.718 103.68C178.618 104.753 176.051 105.593 173.018 106.2C171.991 111.147 169.961 115.323 166.928 118.73C163.894 122.137 160.114 123.84 155.588 123.84ZM156.988 110.33C156.988 114.67 158.084 116.84 160.278 116.84C161.818 116.84 163.381 115.86 164.968 113.9C166.601 111.94 167.721 109.56 168.328 106.76C163.568 106.76 161.188 104.473 161.188 99.9C161.188 99.1067 161.258 98.29 161.398 97.45C160.931 97.45 160.581 97.52 160.348 97.66C159.554 98.5 158.784 100.203 158.038 102.77C157.338 105.29 156.988 107.81 156.988 110.33ZM186.828 123.84C183.188 123.84 180.318 122.697 178.218 120.41C176.118 118.077 175.068 114.81 175.068 110.61C175.068 105.477 176.585 101.137 179.618 97.59C182.651 93.9967 186.641 92.2 191.588 92.2L194.738 92.48C195.858 92.1533 196.908 91.99 197.888 91.99C200.221 91.99 201.878 92.7833 202.858 94.37C203.885 95.9567 204.468 98.22 204.608 101.16C206.568 101.067 208.435 100.763 210.208 100.25L211.188 99.97C211.515 100.297 211.748 101.277 211.888 102.91L211.958 103.68C209.858 104.753 207.291 105.593 204.258 106.2C203.231 111.147 201.201 115.323 198.168 118.73C195.135 122.137 191.355 123.84 186.828 123.84ZM188.228 110.33C188.228 114.67 189.325 116.84 191.518 116.84C193.058 116.84 194.621 115.86 196.208 113.9C197.841 111.94 198.961 109.56 199.568 106.76C194.808 106.76 192.428 104.473 192.428 99.9C192.428 99.1067 192.498 98.29 192.638 97.45C192.171 97.45 191.821 97.52 191.588 97.66C190.795 98.5 190.025 100.203 189.278 102.77C188.578 105.29 188.228 107.81 188.228 110.33ZM231.298 123.84C228.405 123.84 226.538 122.72 225.698 120.48C222.152 122.72 218.978 123.84 216.178 123.84C213.425 123.84 211.185 122.907 209.458 121.04C207.778 119.127 206.938 116.047 206.938 111.8C206.938 106.247 208.338 101.557 211.138 97.73C213.985 93.9033 217.648 91.99 222.128 91.99C224.322 91.99 226.515 92.5033 228.708 93.53C230.435 85.6433 231.298 79.9733 231.298 76.52C231.298 75.4933 231.228 74.4667 231.088 73.44C235.428 72.2267 239.605 71.62 243.618 71.62C243.992 72.2267 244.178 73.6733 244.178 75.96C244.178 78.2 243.105 84.2667 240.958 94.16C238.858 104.053 237.808 110.68 237.808 114.04C237.808 115.813 238.112 116.7 238.718 116.7L241.728 115.72L242.988 119.29C238.882 122.323 234.985 123.84 231.298 123.84ZM222.128 116.77C222.968 116.77 223.902 116.49 224.928 115.93V115.86C225.115 112.08 226.025 106.13 227.658 98.01C226.725 97.73 226.048 97.59 225.628 97.59C224.648 97.59 223.785 98.08 223.038 99.06C222.292 100.04 221.708 101.3 221.288 102.84C220.495 106.013 220.098 109.14 220.098 112.22C220.098 115.253 220.775 116.77 222.128 116.77Z" fill="#0A53C1"/>
<path d="M287.317 4.94178C285.182 3.93206 281.68 3.2143 277.209 5.48672C271.341 8.46883 265.812 16.2214 262.415 26.2206C261.438 29.0671 260.697 31.9894 260.2 34.9577L254.62 23.978C254.244 23.2391 253.591 22.6797 252.803 22.4227C252.015 22.1658 251.157 22.2324 250.418 22.6079C249.679 22.9834 249.12 23.6371 248.863 24.425C248.606 25.213 248.672 26.0708 249.048 26.8096L254.628 37.7894C251.942 36.4393 249.149 35.313 246.278 34.4218C236.195 31.2735 226.673 31.17 220.795 34.1574C216.324 36.4298 214.839 39.6819 214.397 42.0013C213.574 46.2623 214.417 52.5424 226.925 66.8327C233.249 74.0603 239.559 74.8715 244.037 74.0944C243.668 78.5967 245.086 83.0632 247.985 86.5278C250.884 89.9924 255.03 92.1765 259.527 92.6076C264.023 93.0387 268.509 91.6821 272.013 88.8314C275.517 85.9806 277.758 81.8649 278.252 77.3745C282.169 79.6231 286.815 80.2388 291.184 79.0885C295.552 77.9382 299.292 75.1143 301.594 71.2278C303.897 67.3412 304.577 62.7044 303.487 58.3205C302.397 53.9366 299.625 50.1581 295.77 47.8023C299.041 44.6503 302.098 39.0697 299.991 29.6988C297.652 19.3022 294.312 8.23088 287.317 4.94178ZM266.198 84.6965C263.704 85.9095 260.843 86.1341 258.19 85.3252C255.538 84.5163 253.289 82.7338 251.896 80.3355C250.503 77.9372 250.069 75.1007 250.68 72.3955C251.292 69.6903 252.905 67.3166 255.194 65.7511C255.546 65.53 255.85 65.241 256.088 64.9009C256.327 64.5609 256.495 64.1768 256.584 63.7709C256.672 63.365 256.679 62.9456 256.603 62.5372C256.527 62.1287 256.371 61.7395 256.143 61.3921C255.916 61.0448 255.621 60.7463 255.276 60.5142C254.932 60.2821 254.545 60.121 254.137 60.0404C253.73 59.9597 253.31 59.9611 252.903 60.0444C252.496 60.1277 252.11 60.2914 251.767 60.5257C249.305 62.1286 247.299 64.3406 245.943 66.9473C243.023 68.4706 237.65 69.5977 231.628 62.7157C228.617 59.2729 219.469 48.7917 220.536 43.1839C220.709 42.2901 221.221 40.9521 223.627 39.7291C233.123 34.9029 256.991 42.4383 261.732 51.7675L270.993 69.9905C272.308 72.5765 272.541 75.5787 271.642 78.3366C270.742 81.0945 268.784 83.3822 266.198 84.6965ZM293.893 31.0717C295.899 39.9943 291.823 43.6652 288.87 45.131C285.964 44.6817 282.991 44.9925 280.24 46.0331C279.849 46.172 279.489 46.3876 279.182 46.6672C278.875 46.9468 278.626 47.2848 278.451 47.6615C278.276 48.0382 278.178 48.446 278.162 48.8611C278.147 49.2762 278.214 49.6902 278.361 50.079C278.507 50.4677 278.729 50.8234 279.015 51.1252C279.3 51.4271 279.643 51.669 280.023 51.8368C280.403 52.0046 280.812 52.095 281.227 52.1027C281.643 52.1104 282.055 52.0352 282.441 51.8815C284.423 51.1297 286.58 50.9677 288.652 51.4149C290.724 51.8621 292.623 52.8995 294.118 54.4019C295.613 55.9042 296.642 57.8073 297.08 59.8813C297.517 61.9554 297.345 64.1117 296.584 66.0902C295.823 68.0686 294.506 69.7844 292.791 71.0306C291.076 72.2768 289.038 73.0001 286.921 73.1131C284.804 73.2261 282.7 72.724 280.863 71.6674C279.025 70.6109 277.532 69.045 276.565 67.1588L267.304 48.9358C262.563 39.6066 270.53 15.8918 280.041 11.0584C282.461 9.82844 283.84 10.2055 284.667 10.5914C289.83 13.033 292.887 26.6096 293.893 31.0717Z" fill="black"/>
<path d="M287.317 4.94178C285.182 3.93206 281.68 3.2143 277.209 5.48672C271.341 8.46883 265.812 16.2214 262.415 26.2206C261.438 29.0671 260.697 31.9894 260.2 34.9577L254.62 23.978C254.244 23.2391 253.591 22.6797 252.803 22.4227C252.015 22.1658 251.157 22.2324 250.418 22.6079C249.679 22.9834 249.12 23.6371 248.863 24.425C248.606 25.213 248.672 26.0708 249.048 26.8096L254.628 37.7894C251.942 36.4393 249.149 35.313 246.278 34.4218C236.195 31.2735 226.673 31.17 220.795 34.1574C216.324 36.4298 214.839 39.6819 214.397 42.0013C213.574 46.2623 214.417 52.5424 226.925 66.8327C233.249 74.0603 239.559 74.8715 244.037 74.0944C243.668 78.5967 245.086 83.0632 247.985 86.5278C250.884 89.9924 255.03 92.1765 259.527 92.6076C264.023 93.0387 268.509 91.6821 272.013 88.8314C275.517 85.9806 277.758 81.8649 278.252 77.3745C282.169 79.6231 286.815 80.2388 291.184 79.0885C295.552 77.9382 299.292 75.1143 301.594 71.2278C303.897 67.3412 304.577 62.7044 303.487 58.3205C302.397 53.9366 299.625 50.1581 295.77 47.8023C299.041 44.6503 302.098 39.0697 299.991 29.6988C297.652 19.3022 294.312 8.23088 287.317 4.94178ZM266.198 84.6965C263.704 85.9095 260.843 86.1341 258.19 85.3252C255.538 84.5163 253.289 82.7338 251.896 80.3355C250.503 77.9372 250.069 75.1007 250.68 72.3955C251.292 69.6903 252.905 67.3166 255.194 65.7511C255.546 65.53 255.85 65.241 256.088 64.9009C256.327 64.5609 256.495 64.1768 256.584 63.7709C256.672 63.365 256.679 62.9456 256.603 62.5372C256.527 62.1287 256.371 61.7395 256.143 61.3921C255.916 61.0448 255.621 60.7463 255.276 60.5142C254.932 60.2821 254.545 60.121 254.137 60.0404C253.73 59.9597 253.31 59.9611 252.903 60.0444C252.496 60.1277 252.11 60.2914 251.767 60.5257C249.305 62.1286 247.299 64.3406 245.943 66.9473C243.023 68.4706 237.65 69.5977 231.628 62.7157C228.617 59.2729 219.469 48.7917 220.536 43.1839C220.709 42.2901 221.221 40.9521 223.627 39.7291C233.123 34.9029 256.991 42.4383 261.732 51.7675L270.993 69.9905C272.308 72.5765 272.541 75.5787 271.642 78.3366C270.742 81.0945 268.784 83.3822 266.198 84.6965ZM293.893 31.0717C295.899 39.9943 291.823 43.6652 288.87 45.131C285.964 44.6817 282.991 44.9925 280.24 46.0331C279.849 46.172 279.489 46.3876 279.182 46.6672C278.875 46.9468 278.626 47.2848 278.451 47.6615C278.276 48.0382 278.178 48.446 278.162 48.8611C278.147 49.2762 278.214 49.6902 278.361 50.079C278.507 50.4677 278.729 50.8234 279.015 51.1252C279.3 51.4271 279.643 51.669 280.023 51.8368C280.403 52.0046 280.812 52.095 281.227 52.1027C281.643 52.1104 282.055 52.0352 282.441 51.8815C284.423 51.1297 286.58 50.9677 288.652 51.4149C290.724 51.8621 292.623 52.8995 294.118 54.4019C295.613 55.9042 296.642 57.8073 297.08 59.8813C297.517 61.9554 297.345 64.1117 296.584 66.0902C295.823 68.0686 294.506 69.7844 292.791 71.0306C291.076 72.2768 289.038 73.0001 286.921 73.1131C284.804 73.2261 282.7 72.724 280.863 71.6674C279.025 70.6109 277.532 69.045 276.565 67.1588L267.304 48.9358C262.563 39.6066 270.53 15.8918 280.041 11.0584C282.461 9.82844 283.84 10.2055 284.667 10.5914C289.83 13.033 292.887 26.6096 293.893 31.0717Z" fill="#00FF0A" fill-opacity="0.5"/>
</svg>
