<svg width="83" height="81" viewBox="0 0 83 81" fill="none" xmlns="http://www.w3.org/2000/svg">
<path d="M67.6601 1.46115C65.7219 0.564046 62.5357 -0.0610986 58.4477 2.01652C53.083 4.743 47.9967 11.7695 44.8386 20.8086C43.9299 23.3818 43.2363 26.0219 42.7649 28.7021L37.7505 18.8354C37.413 18.1715 36.8211 17.6711 36.1048 17.4444C35.3885 17.2176 34.6066 17.2831 33.9311 17.6265C33.2556 17.9698 32.7418 18.5628 32.5027 19.275C32.2636 19.9873 32.3189 20.7604 32.6563 21.4244L37.6708 31.291C35.2322 30.0904 32.695 29.0923 30.0848 28.3068C20.9183 25.5313 12.2442 25.4982 6.86988 28.2295C2.78185 30.3071 1.40875 33.2494 0.990938 35.3439C0.214331 39.1918 0.942666 44.85 12.2475 57.6584C17.9636 64.1365 23.7074 64.8282 27.7917 64.0991C27.427 68.1617 28.6909 72.1808 31.31 75.2869C33.9291 78.3931 37.6928 80.3366 41.7869 80.6969C45.8809 81.0572 49.9763 79.8055 53.1869 77.2124C56.3975 74.6193 58.4653 70.8934 58.9429 66.8408C62.4982 68.8438 66.7268 69.3698 70.714 68.3047C74.7012 67.2397 78.1264 64.6694 80.2486 61.1498C82.3709 57.6302 83.0195 53.4443 82.0542 49.4976C81.0889 45.551 78.5873 42.1609 75.0905 40.0608C78.0902 37.1975 80.9109 32.1454 79.0504 23.7077C76.985 14.3465 74.0126 4.38313 67.6601 1.46115ZM47.9153 73.5202C45.6353 74.6299 43.0276 74.8506 40.6157 74.1379C38.2038 73.4251 36.1663 71.8318 34.9124 69.6777C33.6584 67.5237 33.2807 64.9684 33.8552 62.5249C34.4297 60.0814 35.9138 57.9305 38.0095 56.5042C38.3313 56.3026 38.61 56.04 38.8296 55.7319C39.0491 55.4237 39.205 55.0762 39.2881 54.7096C39.3712 54.343 39.3798 53.9647 39.3136 53.5969C39.2473 53.229 39.1074 52.8789 38.902 52.5671C38.6967 52.2553 38.4301 51.988 38.1177 51.7809C37.8053 51.5738 37.4535 51.4309 37.0827 51.3608C36.712 51.2906 36.3299 51.2945 35.9586 51.3722C35.5873 51.4499 35.2344 51.5999 34.9205 51.8135C32.667 53.2745 30.8251 55.2821 29.5736 57.6415C26.904 59.0337 22.0015 60.0841 16.559 53.9158C13.837 50.8301 5.56917 41.4356 6.57703 36.3716C6.73969 35.5644 7.21445 34.3545 9.41447 33.2364C18.0967 28.8239 39.7939 35.4686 44.0545 43.852L52.377 60.2275C53.558 62.5514 53.7514 65.2573 52.9147 67.7502C52.078 70.243 50.2796 72.3186 47.9153 73.5202ZM73.4857 24.9844C75.2572 33.0184 71.5204 36.3547 68.8206 37.6954C66.1758 37.3085 63.4653 37.6076 60.953 38.5635C60.5954 38.6912 60.2662 38.8879 59.9846 39.142C59.703 39.3961 59.4745 39.7025 59.3127 40.0433C59.1509 40.3842 59.0589 40.7526 59.042 41.127C59.0252 41.5014 59.084 41.8744 59.2148 42.224C59.3456 42.5737 59.546 42.8931 59.8041 43.1635C60.0622 43.4339 60.3728 43.6498 60.7179 43.7988C61.063 43.9478 61.4357 44.0267 61.814 44.031C62.1923 44.0353 62.5687 43.9649 62.9213 43.8238C64.7317 43.1333 66.698 42.9735 68.5829 43.3637C70.4678 43.754 72.1907 44.6775 73.5436 46.0229C74.8965 47.3683 75.8216 49.078 76.2071 50.9457C76.5927 52.8134 76.4223 54.7592 75.7165 56.5482C75.0107 58.3372 73.7997 59.893 72.2296 61.0277C70.6595 62.1624 68.7975 62.8275 66.8683 62.9428C64.9392 63.0581 63.0253 62.6186 61.3578 61.6774C59.6903 60.7362 58.3404 59.3335 57.4711 57.6386L49.1487 41.263C44.888 32.8797 52.2973 11.4424 60.9923 7.02339C63.2051 5.89882 64.4591 6.23012 65.2102 6.5729C69.8982 8.74217 72.5976 20.9667 73.4857 24.9844Z" fill="black"/>
<path d="M67.6601 1.46115C65.7219 0.564046 62.5357 -0.0610986 58.4477 2.01652C53.083 4.743 47.9967 11.7695 44.8386 20.8086C43.9299 23.3818 43.2363 26.0219 42.7649 28.7021L37.7505 18.8354C37.413 18.1715 36.8211 17.6711 36.1048 17.4444C35.3885 17.2176 34.6066 17.2831 33.9311 17.6265C33.2556 17.9698 32.7418 18.5628 32.5027 19.275C32.2636 19.9873 32.3189 20.7604 32.6563 21.4244L37.6708 31.291C35.2322 30.0904 32.695 29.0923 30.0848 28.3068C20.9183 25.5313 12.2442 25.4982 6.86988 28.2295C2.78185 30.3071 1.40875 33.2494 0.990938 35.3439C0.214331 39.1918 0.942666 44.85 12.2475 57.6584C17.9636 64.1365 23.7074 64.8282 27.7917 64.0991C27.427 68.1617 28.6909 72.1808 31.31 75.2869C33.9291 78.3931 37.6928 80.3366 41.7869 80.6969C45.8809 81.0572 49.9763 79.8055 53.1869 77.2124C56.3975 74.6193 58.4653 70.8934 58.9429 66.8408C62.4982 68.8438 66.7268 69.3698 70.714 68.3047C74.7012 67.2397 78.1264 64.6694 80.2486 61.1498C82.3709 57.6302 83.0195 53.4443 82.0542 49.4976C81.0889 45.551 78.5873 42.1609 75.0905 40.0608C78.0902 37.1975 80.9109 32.1454 79.0504 23.7077C76.985 14.3465 74.0126 4.38313 67.6601 1.46115ZM47.9153 73.5202C45.6353 74.6299 43.0276 74.8506 40.6157 74.1379C38.2038 73.4251 36.1663 71.8318 34.9124 69.6777C33.6584 67.5237 33.2807 64.9684 33.8552 62.5249C34.4297 60.0814 35.9138 57.9305 38.0095 56.5042C38.3313 56.3026 38.61 56.04 38.8296 55.7319C39.0491 55.4237 39.205 55.0762 39.2881 54.7096C39.3712 54.343 39.3798 53.9647 39.3136 53.5969C39.2473 53.229 39.1074 52.8789 38.902 52.5671C38.6967 52.2553 38.4301 51.988 38.1177 51.7809C37.8053 51.5738 37.4535 51.4309 37.0827 51.3608C36.712 51.2906 36.3299 51.2945 35.9586 51.3722C35.5873 51.4499 35.2344 51.5999 34.9205 51.8135C32.667 53.2745 30.8251 55.2821 29.5736 57.6415C26.904 59.0337 22.0015 60.0841 16.559 53.9158C13.837 50.8301 5.56917 41.4356 6.57703 36.3716C6.73969 35.5644 7.21445 34.3545 9.41447 33.2364C18.0967 28.8239 39.7939 35.4686 44.0545 43.852L52.377 60.2275C53.558 62.5514 53.7514 65.2573 52.9147 67.7502C52.078 70.243 50.2796 72.3186 47.9153 73.5202ZM73.4857 24.9844C75.2572 33.0184 71.5204 36.3547 68.8206 37.6954C66.1758 37.3085 63.4653 37.6076 60.953 38.5635C60.5954 38.6912 60.2662 38.8879 59.9846 39.142C59.703 39.3961 59.4745 39.7025 59.3127 40.0433C59.1509 40.3842 59.0589 40.7526 59.042 41.127C59.0252 41.5014 59.084 41.8744 59.2148 42.224C59.3456 42.5737 59.546 42.8931 59.8041 43.1635C60.0622 43.4339 60.3728 43.6498 60.7179 43.7988C61.063 43.9478 61.4357 44.0267 61.814 44.031C62.1923 44.0353 62.5687 43.9649 62.9213 43.8238C64.7317 43.1333 66.698 42.9735 68.5829 43.3637C70.4678 43.754 72.1907 44.6775 73.5436 46.0229C74.8965 47.3683 75.8216 49.078 76.2071 50.9457C76.5927 52.8134 76.4223 54.7592 75.7165 56.5482C75.0107 58.3372 73.7997 59.893 72.2296 61.0277C70.6595 62.1624 68.7975 62.8275 66.8683 62.9428C64.9392 63.0581 63.0253 62.6186 61.3578 61.6774C59.6903 60.7362 58.3404 59.3335 57.4711 57.6386L49.1487 41.263C44.888 32.8797 52.2973 11.4424 60.9923 7.02339C63.2051 5.89882 64.4591 6.23012 65.2102 6.5729C69.8982 8.74217 72.5976 20.9667 73.4857 24.9844Z" fill="#00FF0A" fill-opacity="0.5"/>
<path d="M67.6601 1.46115C65.7219 0.564046 62.5357 -0.0610986 58.4477 2.01652C53.083 4.743 47.9967 11.7695 44.8386 20.8086C43.9299 23.3818 43.2363 26.0219 42.7649 28.7021L37.7505 18.8354C37.413 18.1715 36.8211 17.6711 36.1048 17.4444C35.3885 17.2176 34.6066 17.2831 33.9311 17.6265C33.2556 17.9698 32.7418 18.5628 32.5027 19.275C32.2636 19.9873 32.3189 20.7604 32.6563 21.4244L37.6708 31.291C35.2322 30.0904 32.695 29.0923 30.0848 28.3068C20.9183 25.5313 12.2442 25.4982 6.86988 28.2295C2.78185 30.3071 1.40875 33.2494 0.990938 35.3439C0.214331 39.1918 0.942666 44.85 12.2475 57.6584C17.9636 64.1365 23.7074 64.8282 27.7917 64.0991C27.427 68.1617 28.6909 72.1808 31.31 75.2869C33.9291 78.3931 37.6928 80.3366 41.7869 80.6969C45.8809 81.0572 49.9763 79.8055 53.1869 77.2124C56.3975 74.6193 58.4653 70.8934 58.9429 66.8408C62.4982 68.8438 66.7268 69.3698 70.714 68.3047C74.7012 67.2397 78.1264 64.6694 80.2486 61.1498C82.3709 57.6302 83.0195 53.4443 82.0542 49.4976C81.0889 45.551 78.5873 42.1609 75.0905 40.0608C78.0902 37.1975 80.9109 32.1454 79.0504 23.7077C76.985 14.3465 74.0126 4.38313 67.6601 1.46115ZM47.9153 73.5202C45.6353 74.6299 43.0276 74.8506 40.6157 74.1379C38.2038 73.4251 36.1663 71.8318 34.9124 69.6777C33.6584 67.5237 33.2807 64.9684 33.8552 62.5249C34.4297 60.0814 35.9138 57.9305 38.0095 56.5042C38.3313 56.3026 38.61 56.04 38.8296 55.7319C39.0491 55.4237 39.205 55.0762 39.2881 54.7096C39.3712 54.343 39.3798 53.9647 39.3136 53.5969C39.2473 53.229 39.1074 52.8789 38.902 52.5671C38.6967 52.2553 38.4301 51.988 38.1177 51.7809C37.8053 51.5738 37.4535 51.4309 37.0827 51.3608C36.712 51.2906 36.3299 51.2945 35.9586 51.3722C35.5873 51.4499 35.2344 51.5999 34.9205 51.8135C32.667 53.2745 30.8251 55.2821 29.5736 57.6415C26.904 59.0337 22.0015 60.0841 16.559 53.9158C13.837 50.8301 5.56917 41.4356 6.57703 36.3716C6.73969 35.5644 7.21445 34.3545 9.41447 33.2364C18.0967 28.8239 39.7939 35.4686 44.0545 43.852L52.377 60.2275C53.558 62.5514 53.7514 65.2573 52.9147 67.7502C52.078 70.243 50.2796 72.3186 47.9153 73.5202ZM73.4857 24.9844C75.2572 33.0184 71.5204 36.3547 68.8206 37.6954C66.1758 37.3085 63.4653 37.6076 60.953 38.5635C60.5954 38.6912 60.2662 38.8879 59.9846 39.142C59.703 39.3961 59.4745 39.7025 59.3127 40.0433C59.1509 40.3842 59.0589 40.7526 59.042 41.127C59.0252 41.5014 59.084 41.8744 59.2148 42.224C59.3456 42.5737 59.546 42.8931 59.8041 43.1635C60.0622 43.4339 60.3728 43.6498 60.7179 43.7988C61.063 43.9478 61.4357 44.0267 61.814 44.031C62.1923 44.0353 62.5687 43.9649 62.9213 43.8238C64.7317 43.1333 66.698 42.9735 68.5829 43.3637C70.4678 43.754 72.1907 44.6775 73.5436 46.0229C74.8965 47.3683 75.8216 49.078 76.2071 50.9457C76.5927 52.8134 76.4223 54.7592 75.7165 56.5482C75.0107 58.3372 73.7997 59.893 72.2296 61.0277C70.6595 62.1624 68.7975 62.8275 66.8683 62.9428C64.9392 63.0581 63.0253 62.6186 61.3578 61.6774C59.6903 60.7362 58.3404 59.3335 57.4711 57.6386L49.1487 41.263C44.888 32.8797 52.2973 11.4424 60.9923 7.02339C63.2051 5.89882 64.4591 6.23012 65.2102 6.5729C69.8982 8.74217 72.5976 20.9667 73.4857 24.9844Z" fill="#000AFB" fill-opacity="0.5"/>
</svg>
