<svg width="328" height="160" viewBox="0 0 328 160" fill="none" xmlns="http://www.w3.org/2000/svg">
<path d="M25.2 96L16.44 80.1H13.98V96H3.72V53.88H20.94C24.26 53.88 27.08 54.46 29.4 55.62C31.76 56.78 33.52 58.38 34.68 60.42C35.84 62.42 36.42 64.66 36.42 67.14C36.42 69.94 35.62 72.44 34.02 74.64C32.46 76.84 30.14 78.4 27.06 79.32L36.78 96H25.2ZM13.98 72.84H20.34C22.22 72.84 23.62 72.38 24.54 71.46C25.5 70.54 25.98 69.24 25.98 67.56C25.98 65.96 25.5 64.7 24.54 63.78C23.62 62.86 22.22 62.4 20.34 62.4H13.98V72.84ZM74.4206 78.72C74.4206 79.68 74.3606 80.68 74.2406 81.72H51.0206C51.1806 83.8 51.8406 85.4 53.0006 86.52C54.2006 87.6 55.6606 88.14 57.3806 88.14C59.9406 88.14 61.7206 87.06 62.7206 84.9H73.6406C73.0806 87.1 72.0606 89.08 70.5806 90.84C69.1406 92.6 67.3206 93.98 65.1206 94.98C62.9206 95.98 60.4606 96.48 57.7406 96.48C54.4606 96.48 51.5406 95.78 48.9806 94.38C46.4206 92.98 44.4206 90.98 42.9806 88.38C41.5406 85.78 40.8206 82.74 40.8206 79.26C40.8206 75.78 41.5206 72.74 42.9206 70.14C44.3606 67.54 46.3606 65.54 48.9206 64.14C51.4806 62.74 54.4206 62.04 57.7406 62.04C60.9806 62.04 63.8606 62.72 66.3806 64.08C68.9006 65.44 70.8606 67.38 72.2606 69.9C73.7006 72.42 74.4206 75.36 74.4206 78.72ZM63.9206 76.02C63.9206 74.26 63.3206 72.86 62.1206 71.82C60.9206 70.78 59.4206 70.26 57.6206 70.26C55.9006 70.26 54.4406 70.76 53.2406 71.76C52.0806 72.76 51.3606 74.18 51.0806 76.02H63.9206ZM92.5533 62.04C94.9133 62.04 96.9733 62.52 98.7333 63.48C100.533 64.44 101.913 65.7 102.873 67.26V62.52H113.133V95.94C113.133 99.02 112.513 101.8 111.273 104.28C110.073 106.8 108.213 108.8 105.693 110.28C103.213 111.76 100.113 112.5 96.3933 112.5C91.4333 112.5 87.4133 111.32 84.3333 108.96C81.2533 106.64 79.4933 103.48 79.0533 99.48H89.1933C89.5133 100.76 90.2733 101.76 91.4733 102.48C92.6733 103.24 94.1533 103.62 95.9133 103.62C98.0333 103.62 99.7133 103 100.953 101.76C102.233 100.56 102.873 98.62 102.873 95.94V91.2C101.873 92.76 100.493 94.04 98.7333 95.04C96.9733 96 94.9133 96.48 92.5533 96.48C89.7933 96.48 87.2933 95.78 85.0533 94.38C82.8133 92.94 81.0333 90.92 79.7133 88.32C78.4333 85.68 77.7933 82.64 77.7933 79.2C77.7933 75.76 78.4333 72.74 79.7133 70.14C81.0333 67.54 82.8133 65.54 85.0533 64.14C87.2933 62.74 89.7933 62.04 92.5533 62.04ZM102.873 79.26C102.873 76.7 102.153 74.68 100.713 73.2C99.3133 71.72 97.5933 70.98 95.5533 70.98C93.5133 70.98 91.7733 71.72 90.3333 73.2C88.9333 74.64 88.2333 76.64 88.2333 79.2C88.2333 81.76 88.9333 83.8 90.3333 85.32C91.7733 86.8 93.5133 87.54 95.5533 87.54C97.5933 87.54 99.3133 86.8 100.713 85.32C102.153 83.84 102.873 81.82 102.873 79.26ZM125.716 59.04C123.916 59.04 122.436 58.52 121.276 57.48C120.156 56.4 119.596 55.08 119.596 53.52C119.596 51.92 120.156 50.6 121.276 49.56C122.436 48.48 123.916 47.94 125.716 47.94C127.476 47.94 128.916 48.48 130.036 49.56C131.196 50.6 131.776 51.92 131.776 53.52C131.776 55.08 131.196 56.4 130.036 57.48C128.916 58.52 127.476 59.04 125.716 59.04ZM130.816 62.52V96H120.556V62.52H130.816ZM151.871 96.48C148.951 96.48 146.351 95.98 144.071 94.98C141.791 93.98 139.991 92.62 138.671 90.9C137.351 89.14 136.611 87.18 136.451 85.02H146.591C146.711 86.18 147.251 87.12 148.211 87.84C149.171 88.56 150.351 88.92 151.751 88.92C153.031 88.92 154.011 88.68 154.691 88.2C155.411 87.68 155.771 87.02 155.771 86.22C155.771 85.26 155.271 84.56 154.271 84.12C153.271 83.64 151.651 83.12 149.411 82.56C147.011 82 145.011 81.42 143.411 80.82C141.811 80.18 140.431 79.2 139.271 77.88C138.111 76.52 137.531 74.7 137.531 72.42C137.531 70.5 138.051 68.76 139.091 67.2C140.171 65.6 141.731 64.34 143.771 63.42C145.851 62.5 148.311 62.04 151.151 62.04C155.351 62.04 158.651 63.08 161.051 65.16C163.491 67.24 164.891 70 165.251 73.44H155.771C155.611 72.28 155.091 71.36 154.211 70.68C153.371 70 152.251 69.66 150.851 69.66C149.651 69.66 148.731 69.9 148.091 70.38C147.451 70.82 147.131 71.44 147.131 72.24C147.131 73.2 147.631 73.92 148.631 74.4C149.671 74.88 151.271 75.36 153.431 75.84C155.911 76.48 157.931 77.12 159.491 77.76C161.051 78.36 162.411 79.36 163.571 80.76C164.771 82.12 165.391 83.96 165.431 86.28C165.431 88.24 164.871 90 163.751 91.56C162.671 93.08 161.091 94.28 159.011 95.16C156.971 96.04 154.591 96.48 151.871 96.48ZM190.368 87.3V96H185.148C181.428 96 178.528 95.1 176.448 93.3C174.368 91.46 173.328 88.48 173.328 84.36V71.04H169.248V62.52H173.328V54.36H183.588V62.52H190.308V71.04H183.588V84.48C183.588 85.48 183.828 86.2 184.308 86.64C184.788 87.08 185.588 87.3 186.708 87.3H190.368ZM227.643 78.72C227.643 79.68 227.583 80.68 227.463 81.72H204.243C204.403 83.8 205.063 85.4 206.223 86.52C207.423 87.6 208.883 88.14 210.603 88.14C213.163 88.14 214.943 87.06 215.943 84.9H226.863C226.303 87.1 225.283 89.08 223.803 90.84C222.363 92.6 220.543 93.98 218.343 94.98C216.143 95.98 213.683 96.48 210.963 96.48C207.683 96.48 204.763 95.78 202.203 94.38C199.643 92.98 197.643 90.98 196.203 88.38C194.763 85.78 194.043 82.74 194.043 79.26C194.043 75.78 194.743 72.74 196.143 70.14C197.583 67.54 199.583 65.54 202.143 64.14C204.703 62.74 207.643 62.04 210.963 62.04C214.203 62.04 217.083 62.72 219.603 64.08C222.123 65.44 224.083 67.38 225.483 69.9C226.923 72.42 227.643 75.36 227.643 78.72ZM217.143 76.02C217.143 74.26 216.543 72.86 215.343 71.82C214.143 70.78 212.643 70.26 210.843 70.26C209.123 70.26 207.663 70.76 206.463 71.76C205.303 72.76 204.583 74.18 204.303 76.02H217.143ZM243.316 68.1C244.516 66.26 246.016 64.82 247.816 63.78C249.616 62.7 251.616 62.16 253.816 62.16V73.02H250.996C248.436 73.02 246.516 73.58 245.236 74.7C243.956 75.78 243.316 77.7 243.316 80.46V96H233.056V62.52H243.316V68.1Z" fill="black"/>
<path d="M297.66 4.46116C295.722 3.56405 292.536 2.9389 288.448 5.01653C283.083 7.743 277.997 14.7695 274.839 23.8086C273.93 26.3818 273.236 29.0219 272.765 31.7021L267.75 21.8354C267.413 21.1715 266.821 20.6711 266.105 20.4444C265.389 20.2176 264.607 20.2831 263.931 20.6264C263.256 20.9698 262.742 21.5628 262.503 22.275C262.264 22.9873 262.319 23.7604 262.656 24.4243L267.671 34.291C265.232 33.0904 262.695 32.0923 260.085 31.3068C250.918 28.5313 242.244 28.4982 236.87 31.2295C232.782 33.3071 231.409 36.2494 230.991 38.3439C230.214 42.1918 230.943 47.85 242.248 60.6584C247.964 67.1365 253.707 67.8282 257.792 67.0991C257.427 71.1617 258.691 75.1808 261.31 78.2869C263.929 81.3931 267.693 83.3366 271.787 83.6969C275.881 84.0572 279.976 82.8055 283.187 80.2124C286.398 77.6193 288.465 73.8934 288.943 69.8408C292.498 71.8438 296.727 72.3698 300.714 71.3047C304.701 70.2397 308.126 67.6694 310.249 64.1498C312.371 60.6302 313.019 56.4443 312.054 52.4976C311.089 48.551 308.587 45.1609 305.091 43.0608C308.09 40.1975 310.911 35.1454 309.05 26.7077C306.985 17.3465 304.013 7.38313 297.66 4.46116ZM277.915 76.5202C275.635 77.6299 273.028 77.8506 270.616 77.1379C268.204 76.4251 266.166 74.8318 264.912 72.6777C263.658 70.5237 263.281 67.9684 263.855 65.5249C264.43 63.0814 265.914 60.9305 268.01 59.5042C268.331 59.3026 268.61 59.04 268.83 58.7319C269.049 58.4237 269.205 58.0762 269.288 57.7096C269.371 57.343 269.38 56.9647 269.314 56.5969C269.247 56.229 269.107 55.8789 268.902 55.5671C268.697 55.2553 268.43 54.988 268.118 54.7809C267.805 54.5738 267.453 54.4309 267.083 54.3608C266.712 54.2906 266.33 54.2945 265.959 54.3722C265.587 54.4499 265.234 54.5999 264.92 54.8135C262.667 56.2745 260.825 58.2821 259.574 60.6415C256.904 62.0337 252.001 63.0841 246.559 56.9158C243.837 53.8301 235.569 44.4356 236.577 39.3716C236.74 38.5644 237.214 37.3545 239.414 36.2364C248.097 31.8239 269.794 38.4686 274.055 46.852L282.377 63.2275C283.558 65.5514 283.751 68.2573 282.915 70.7502C282.078 73.2431 280.28 75.3186 277.915 76.5202ZM303.486 27.9844C305.257 36.0184 301.52 39.3547 298.821 40.6954C296.176 40.3085 293.465 40.6076 290.953 41.5635C290.595 41.6912 290.266 41.8879 289.985 42.142C289.703 42.3961 289.475 42.7025 289.313 43.0433C289.151 43.3842 289.059 43.7525 289.042 44.127C289.025 44.5014 289.084 44.8744 289.215 45.224C289.346 45.5737 289.546 45.8931 289.804 46.1635C290.062 46.4339 290.373 46.6498 290.718 46.7988C291.063 46.9478 291.436 47.0267 291.814 47.031C292.192 47.0353 292.569 46.9649 292.921 46.8238C294.732 46.1333 296.698 45.9735 298.583 46.3637C300.468 46.754 302.191 47.6775 303.544 49.0229C304.896 50.3683 305.822 52.078 306.207 53.9457C306.593 55.8134 306.422 57.7592 305.717 59.5482C305.011 61.3372 303.8 62.893 302.23 64.0277C300.659 65.1624 298.797 65.8275 296.868 65.9428C294.939 66.0581 293.025 65.6186 291.358 64.6774C289.69 63.7362 288.34 62.3335 287.471 60.6386L279.149 44.263C274.888 35.8797 282.297 14.4424 290.992 10.0234C293.205 8.89882 294.459 9.23012 295.21 9.5729C299.898 11.7422 302.598 23.9667 303.486 27.9844Z" fill="#0029FF"/>
</svg>
